<svg version="1.0" xmlns="http://www.w3.org/2000/svg" viewBox="0 0 200.000000 200.000000" preserveAspectRatio="xMidYMid meet"><g transform="translate(0.000000,200.000000) scale(0.100000,-0.100000)" stroke="none"><path d="M1383 1943 c-14 -12 -33 -65 -58 -158 -21 -77 -43 -145 -49 -152 -6 -7 -76 -30 -154 -52 -79 -22 -150 -45 -158 -52 -18 -15 -18 -54 0 -72 8 -8 77 -31 153 -52 76 -21 145 -45 155 -54 9 -9 33 -78 54 -155 21 -76 44 -145 52 -152 19 -19 56 -17 74 4 8 9 31 78 52 153 21 74 41 141 45 147 4 7 76 32 160 56 148 42 171 53 171 87 0 33 -30 49 -169 88 -80 22 -150 46 -157 53 -6 7 -30 78 -53 158 -23 79 -45 147 -49 151 -19 18 -50 18 -69 2z"/><path d="M548 1603 c-9 -10 -33 -79 -53 -155 -21 -75 -41 -141 -45 -148 -4 -7 -76 -32 -160 -55 -84 -24 -157 -50 -161 -57 -16 -24 -9 -57 14 -72 12 -8 83 -31 157 -51 74 -20 140 -43 146 -51 6 -8 28 -74 49 -147 42 -150 56 -177 89 -177 37 0 51 26 92 173 21 77 43 145 49 152 5 7 71 30 145 50 152 41 180 55 180 89 0 37 -27 52 -172 91 -75 21 -141 41 -148 45 -6 4 -31 73 -55 154 -24 81 -49 153 -55 161 -17 20 -54 19 -72 -2z"/><path d="M1118 953 c-8 -10 -31 -79 -52 -154 -21 -74 -41 -141 -45 -147 -4 -7 -76 -32 -161 -56 -148 -43 -170 -54 -170 -87 0 -33 30 -49 170 -89 80 -23 150 -47 156 -53 7 -7 30 -77 53 -156 22 -80 45 -149 50 -154 15 -15 63 -11 76 6 6 8 28 77 49 154 21 76 44 143 50 150 6 6 76 30 156 53 142 41 170 56 170 91 0 32 -28 46 -167 84 -76 21 -145 44 -154 52 -9 7 -33 77 -54 154 -21 78 -45 147 -53 155 -19 19 -56 18 -74 -3z"/></g></svg>